<svg version="1.0" xmlns="http://www.w3.org/2000/svg" width="568" height="568" viewBox="0 0 426 426"><path d="M172 38c0 .5.5 1 1 1 .6 0 1-.5 1-1 0-.6-.4-1-1-1-.5 0-1 .4-1 1zm-4.3 3.7c-.4.3-.7 1.1-.7 1.7 0 .6.5.5 1.2-.2.6-.6.9-1.4.7-1.7-.3-.3-.9-.2-1.2.2zM162 44c0 .5.5 1 1 1 .6 0 1-.5 1-1 0-.6-.4-1-1-1-.5 0-1 .4-1 1zm1.1 5.8c-.7 1.3-1.1 2.8-.8 3.5.2.7.9.2 1.6-1.1.7-1.3 1.1-2.8.8-3.5-.2-.7-.9-.2-1.6 1.1zM31 52.2c0 .7 2.2 2.5 4.8 4 5.3 2.9 35.3 24.6 36.4 26.2.4.6 1 .7 1.4.3.4-.4 0-1.3-.8-2-.9-.6-8.9-6.7-17.7-13.5C38.2 54.5 31 50 31 52.2zm126 4.4c0 1.4.4 2.3 1 1.9.6-.3 1-1.5 1-2.6 0-1-.4-1.9-1-1.9-.5 0-1 1.2-1 2.6zm3.8 0c-.5.4-.8 1.6-.8 2.8 0 1.4.3 1.7 1.1.9.6-.6.9-1.9.7-2.8-.1-.9-.6-1.3-1-.9zm206.9.1c-1.2 1.2-.7 2.2.8 1.7.8-.4 1.5-1 1.5-1.5 0-1.1-1.4-1.2-2.3-.2zm5 1.2c.3 1 0 2.2-.6 2.5-1.5 1-1.4 3.6.2 3.6.7 0 1.3-1.6 1.5-4 .1-2.2-.2-4-.7-4-.5 0-.7.8-.4 1.9zm-12.5 5.4c-3.4 3.6-2.7 5.5.8 2.1 1.6-1.6 3-3.2 3-3.7 0-1.4-1.7-.7-3.8 1.6zm-181.4 1.5c-4 .5-3.4 2.2.7 2.2 1.9 0 3.5-.4 3.5-.9 0-1.4-1.1-1.7-4.2-1.3zm8.7.2c.3.5 1.5 1 2.5 1s2.2-.5 2.5-1c.4-.6-.7-1-2.5-1s-2.9.4-2.5 1zm10 1c-.3.5-.5 1-.3 1.1.2 0 1.2.2 2.3.4 1.1.2 3.5.7 5.3 1 6.1 1.1 2.9-1.2-4-2.9-1.5-.3-3-.2-3.3.4zm-31.3 1.1c-3.5 1.3-1.7 2.9 1.8 1.6 3-1.1 4.1-2.8 1.8-2.6-.7 0-2.3.4-3.6 1zm211.1.7c1 1 1.7 2.6 1.7 3.5 0 2.5 1.8 3 2.5.6.8-2.3-1.9-5.9-4.3-5.9-1.3 0-1.3.3.1 1.8zm-219.8.5c-.4 1-.3 2.3.4 3 1.6 1.6 2.3.3 1.2-2.4-.8-2.2-1-2.2-1.6-.6zm71.3 1.4c1.2.2 3 .2 4 0 .9-.3-.1-.5-2.3-.4-2.2 0-3 .2-1.7.4zM161 71c0 .5.5 1 1 1 .6 0 1-.5 1-1 0-.6-.4-1-1-1-.5 0-1 .4-1 1zm77-.1c0 .9 2.4 2.1 4.3 2.1.6 0 .2-.7-.9-1.5-2.2-1.7-3.4-1.9-3.4-.6zM213 72c2 1.3 3.3 1.3 2.5 0-.3-.6-1.4-1-2.3-1-1.5 0-1.5.2-.2 1zm6.8.1c-1.8 1-2.5 2.9-1 2.9.4 0 1.8-.9 3.2-2 2.7-2.1 1-2.8-2.2-.9zM350 74c0 .5.5 1 1 1 .6 0 1-.5 1-1 0-.6-.4-1-1-1-.5 0-1 .4-1 1zm-197 1c0 .5.7 1 1.5 1s1.5-.5 1.5-1c0-.6-.7-1-1.5-1s-1.5.4-1.5 1zm-5 1c0 .5.4 1 .9 1 .6 0 1.3-.5 1.6-1 .3-.6-.1-1-.9-1-.9 0-1.6.4-1.6 1zm99-.5c0 1.5 3.4 8.5 4.1 8.5 1.3 0 1.1-.6-1.1-5-1.8-3.6-3-4.9-3-3.5zm95 5.3c-1.4 2-4 5.1-5.8 7-2.6 2.6-3.2 3.9-2.8 5.8.9 3.3 2.3 3 3.1-.6.4-1.6 2.6-5.7 5-9 2.5-3.2 4.1-6.1 3.7-6.4-.4-.2-1.9 1.2-3.2 3.2zm-202.3-2.1c-1.2 1.2-.7 2.2.8 1.7.8-.4 1.5-1 1.5-1.5 0-1.1-1.4-1.2-2.3-.2zm240 1.9c-.4.4-.7 1.4-.7 2.3 0 1.1.3 1.2 1.1.4.6-.6 1-1.6.7-2.3-.2-.6-.7-.8-1.1-.4zM132.5 84c-.3.5-.1 1 .4 1 .6 0 1.1-.5 1.1-1 0-.6-.2-1-.4-1-.3 0-.8.4-1.1 1zm197 2c-2.2 2.4-1.4 3.8.8 1.6.9-.9 2.3-1.3 3.3-.9 1.2.4 1.5.2 1.2-.8-.7-2.2-3.2-2.2-5.3.1zm-283 4C29.8 93.5 26 94.4 26 95.2c0 1.4 4.5.9 17.6-1.7 7-1.5 12.8-2.4 13.1-2.2.2.3-.5 2-1.6 3.8-3.2 5.2-2.5 5.4 2.9.7 6.4-5.5 6.6-7.9.8-7.6-2.4.1-7.9.9-12.3 1.8zm204.3-1c-.4.8-.9 3.2-1.3 5.3-.3 2.1-.9 4.5-1.2 5.3-.3.8-.1 1.4.4 1.4 1.5 0 3.5-7.2 3.1-10.5-.3-2-.6-2.5-1-1.5zm125.5 1.3c-1.8 3.9-1.6 5.5.3 3.5.9-.8 1.4-2.6 1.2-3.9-.3-2.3-.3-2.3-1.5.4zM125.5 92c-1 1.1-1.5 2.3-1.2 2.7.7.6 3.6-2.5 3.7-4 0-1.1-.6-.8-2.5 1.3zm199 4c-.3.5-.2 1 .4 1 .5 0 1.3-.5 1.6-1 .3-.6.2-1-.4-1-.5 0-1.3.4-1.6 1zM254 97c0 .5.7.7 1.5.4.8-.4 1.5-.8 1.5-1 0-.2-.7-.4-1.5-.4s-1.5.4-1.5 1zm76.8 1.5c-.7 3.2.8 4.3 1.6 1.2.8-3 .7-3.7-.3-3.7-.5 0-1.1 1.1-1.3 2.5zm40.8 1c-1.1 1.6-1.2 2.5-.5 2.5 1.2 0 3.8-2.9 3.9-4.3 0-1.6-1.8-.6-3.4 1.8zm-324.5 7.7c.1 13.6 1.6 16.8 2 4 .1-5.6.2-10.7.3-11.4.1-.6-.5-1.3-1.1-1.6-1-.3-1.3 1.9-1.2 9zM263 99.5c.7.8 2.2 1.5 3.4 1.5 2-.1 2-.2-.4-1.5-3.3-1.9-4.6-1.9-3 0zm-143.1 2.1c-1.1 3-.3 4.6 1.1 2.4 1-1.6 1.3-5 .5-5-.3 0-1 1.2-1.6 2.6zm204.1 2.9c0 2.2.4 3.4 1 3 .6-.3 1-1.7 1-3s-.4-2.7-1-3c-.6-.4-1 .8-1 3zm-65-1.6c0 1.7 3.8 5.6 4.7 4.7.4-.4 0-1.3-.9-1.9-1.5-1-1.5-1.2 0-2.4 1.5-1.1 1.4-1.2-1-1.3-1.6 0-2.8.4-2.8.9zm6.6.1c.5.5 2.5 1.2 4.4 1.6 3.3.5 3.4.5 1.6-1-2.2-1.7-7.7-2.3-6-.6zM109 105c0 .5.9 1 2.1 1 1.1 0 1.7-.5 1.4-1-.3-.6-1.3-1-2.1-1s-1.4.4-1.4 1zm166 1c0 .5.7 1 1.6 1 .8 0 1.2-.5.9-1-.3-.6-1-1-1.6-1-.5 0-.9.4-.9 1zm89.5 1.7c-3.1 4.2-3.7 5.3-2.6 5.3s7.1-6.1 7.1-7.3c0-1.6-2.6-.5-4.5 2zm-262.1-.3c-1 .8-1.6 1.7-1.3 2 .3.3 1.4-.1 2.5-.8 1-.8 1.6-1.7 1.3-2-.3-.3-1.4.1-2.5.8zm167.5 3.6c1.3 1.1 3.5 2 5 2 2.2 0 2-.3-1.8-2-5.4-2.5-6.3-2.5-3.2 0zm-174.2.7c-.4.3-.7 1.1-.7 1.7 0 .6.5.5 1.2-.2.6-.6.9-1.4.7-1.7-.3-.3-.9-.2-1.2.2zm230.3 3.8c0 4.9-.8 6.2-4 6.8-1.9.3-1.6.5 1.2.6 3.4.1 3.8-.1 4.3-3.2.4-1.7.2-4.3-.4-5.7-.9-2.3-1-2.2-1.1 1.5zm-53.7-.3c-2.3 1.1-3.2 3.8-1.3 3.8.6 0 1-.7 1-1.6 0-.9.8-1.4 1.8-1.3 2.9.3 4.2-.1 4.2-1.1 0-1.3-2.9-1.2-5.7.2zm85.1 1.2c-1 .8-1.5 1.8-1.1 2.2.4.4 1.7-.2 3-1.4 2.4-2.5 1.2-3-1.9-.8zm-264.3 4.3c0 2.5.1 2.6.9.8 1.2-2.7 1.2-3.5 0-3.5-.5 0-1 1.2-.9 2.7zm174.4.4c-1.1 1.7.1 2.1 1.5.4.8-.9.8-1.5.2-1.5-.6 0-1.4.5-1.7 1.1zm78.6 2.5c-1.7 2-2 2.9-1.1 3.8.8.8 1.4.7 2.1-.6.5-.9 1.6-2.4 2.4-3.2 1.8-1.8 1.9-2.6.2-2.6-.7 0-2.4 1.2-3.6 2.6zm-30.1 3c0 .8.5 1.2 1 .9.6-.3 1-1 1-1.6 0-.5-.4-.9-1-.9-.5 0-1 .7-1 1.6zm-56 2.9c-1.3 1.4-1.9 2.5-1.3 2.5.5 0 2-1.1 3.3-2.5 1.3-1.4 1.9-2.5 1.3-2.5-.5 0-2 1.1-3.3 2.5zm-199.4 0c-.3.9.1 2.8.9 4.3l1.4 2.7v-3c.1-3.9-1.3-6.4-2.3-4zm287.1-.9c-.4.4-.7 1.4-.7 2.3 0 1.1.3 1.2 1.1.4.6-.6 1-1.6.7-2.3-.2-.6-.7-.8-1.1-.4zM93 130.9c0 1.1 3.9 5.9 4 4.9 0-1.4-2.3-5.8-3.2-5.8-.4 0-.8.4-.8.9zM55.5 132c-1 1.7.4 6.2 1.8 5.7 1.3-.4 1.1-4.6-.3-6-.4-.5-1.1-.4-1.5.3zm255.7.2c-.6.6-1.2 1.9-1.2 2.7 0 1.3.2 1.3 1.6-.1.9-.9 1.5-2.1 1.3-2.7-.3-.9-.8-.8-1.7.1zm-241.4 2.6c-2.1 2.4-6.8 11.2-6.8 12.6 0 .6.6.2 1.2-.9.7-1.1 2.1-3 3.3-4.3 3.2-3.4 5.6-8 4.6-8.6-.4-.3-1.5.2-2.3 1.2zm271.8 3.4c-.9 1.2-1.4 2.4-1.1 2.6.6.7 2.4-.8 3.5-2.9 1.5-2.7-.5-2.5-2.4.3zM101 140.5c.7.9 1.5 1.3 1.7 1.1.7-.7-.7-2.6-1.9-2.6-.6 0-.6.6.2 1.5zm160 .4c0 1 5.3 5.1 6.6 5.1.4 0-.5-1.4-2.1-3-2.9-3-4.5-3.8-4.5-2.1zm42.8 2.2c-1 1.7-1.8 3.6-1.8 4.2 0 1.6 4.9-4.4 5-6.1 0-2.1-1.4-1.3-3.2 1.9zm-208.2 6c-1.4 1.7-2.6 3.6-2.6 4.2.1.7.9.2 2-1.1 1-1.3 2.9-3.2 4.2-4.2 1.8-1.6 2-1.9.6-2-.9 0-2.8 1.4-4.2 3.1zm237.6 2.1c-1.4 1.4-1.6 3.8-.3 3.8.8 0 2.3-4.1 1.7-4.7-.1-.1-.8.3-1.4.9zm-235.4 2.4c-.5.4-.8 1.6-.8 2.8 0 1.4.3 1.7 1.1.9.6-.6.9-1.9.7-2.8-.1-.9-.6-1.3-1-.9zm174.7 1.9c.4 1.1 1 2.8 1.2 3.7.3 1 .9 1.8 1.4 1.8 1.6 0 1-2.7-1.2-5.1-1.8-2.1-2-2.1-1.4-.4zm23.2 2c-1.9 4-2 4.5-.9 4.5.9 0 4.2-5.4 4.2-6.9 0-2.2-1.7-1-3.3 2.4zm-241.2 3.7c-.3.7-1 3.1-1.7 5.3-1.2 3.7-1.7 4-6.1 4.8-5.8 1.1-6.4 3.2-.6 2.4 4-.5 4.1-.5 3.4 2.1-1.3 5.2-2.6 13.4-2.2 13.8.2.2 1.5-3.6 3-8.5 2.2-7.2 3.1-9 4.9-9.5 2.3-.6 11.8-.9 11.8-.3 0 .1-.9 2.7-1.9 5.7-1.1 3-2.2 7.3-2.6 9.5-.6 3.9-.6 4 .9 1.4 2-3.4 6.6-15.7 6.6-17.6 0-1.2-1.5-1.4-7.6-1.1l-7.6.3.6-2.5c.3-1.4.8-3.5 1.2-4.8.7-2.3-1.3-3.2-2.1-1zm35.5 3.2c.1 3.8.2 4 1.5 2.2 2-2.6 1.9-6.3 0-6.3-1.1 0-1.5 1.1-1.5 4.1zm235.2 1.4c-2.5 5.7-2.6 6.2-1.3 6.2 1.1 0 4.4-8.6 3.9-10.2-.2-.6-1.4 1.2-2.6 4zM108 167.6c0 2.7.5 5.6 1.1 6.4.7 1.1.8-.3.3-4.5-.8-7.5-1.4-8.3-1.4-1.9zm-8.2-2.1c-.3 2.4-.6 3.2-1.6 5.6-.6 1.5-1.3 4.4-1.6 6.5l-.6 3.9 1.5-3c.8-1.7 1.4-3.6 1.5-4.3 0-.6.4-1.2.9-1.2 1.3 0 2.3-6.2 1.1-7.4-.6-.6-1.1-.6-1.2-.1zm190.8 3c-1.8 4.2-2.1 6.9-.6 6 1.1-.7 3.4-8.5 2.6-9.2-.3-.3-1.2 1.2-2 3.2zm-196-.8c-1 1-.7 8.5.3 7.9.5-.3 1.1-2.2 1.3-4.2.4-3.4-.3-5-1.6-3.7zm11.1-.1c-.4.4-.7 1.7-.7 2.8.1 1.9.1 2 1.1.3 1.1-1.9.8-4.3-.4-3.1zm173.1 3.6c-.4.9-.1 3.6.7 6l1.3 4.3V178c0-1.9-.3-4.6-.7-6-.6-2.1-.8-2.2-1.3-.8zm-173.7 7.3c-.1 4 1.2 7.5 2.4 6.3.4-.3 0-2.8-.8-5.5l-1.5-4.8-.1 4zm180.9 1.2c-.8 1.6-1.6 3.2-1.8 3.7-.3.5.1.7.8.4 1.4-.4 4.3-6.8 3.1-6.8-.4 0-1.4 1.2-2.1 2.7zm-184 .4c.7 1.1 1.4 1.9 1.6 1.6.7-.7-.7-3.7-1.7-3.7-.6 0-.5.9.1 2.1zm10 1.7c0 1 .7 2.7 1.6 3.8 1.5 1.8 1.5 1.8 1-.6-.3-1.4-.6-3.1-.6-3.8 0-.6-.4-1.2-1-1.2-.5 0-1 .8-1 1.8zm163 .1c0 .6.5 1.3 1 1.6.6.3 1-.1 1-.9 0-.9-.4-1.6-1-1.6-.5 0-1 .4-1 .9zm42.7 4.3c-.6 2.1-.2 3.6.7 2.7 1-1.1 1.6-4.9.8-4.9-.5 0-1.2 1-1.5 2.2zm-40.1.7c-1.8 1.9-2.3 10.1-.6 10.1.6 0 1-2 1-4.5s.5-4.5 1-4.5c.6 0 1 .9 1 1.9 0 1.9 2.3 3.5 3.4 2.4 1-1.1.6-4.4-.7-5.6-1.9-1.8-3.3-1.8-5.1.2zm-19.5 6.2c-1.4 4-1.4 5.9-.1 5.9.6 0 1-.8 1-1.8 0-2.6 1.1-3.4 2.7-2.1 1.8 1.5 1.7-.9-.1-3.4-1.8-2.3-2.2-2.2-3.5 1.4zm-140.3 1.6c-.7 2.6.3 9.3 1.3 9.3.7 0 .3-10-.5-10.8-.2-.1-.6.5-.8 1.5zm195.9 5c-.4.3-.7 1.7-.7 3 0 1.2-.5 2.3-1.1 2.3-1.9 0-.5 2 2.9 4.1 2.6 1.7 3.2 1.8 3.2.6 0-.9-.9-1.9-2-2.2-1.7-.5-1.9-1.2-1.4-4.6.6-3.8.4-4.6-.9-3.2zm-70.2 1.3c-.3.5-.1 1 .4 1 .6 0 1.1-.5 1.1-1 0-.6-.2-1-.4-1-.3 0-.8.4-1.1 1zm21.5 1.9c0 .6.5 1.3 1 1.6.6.3 1-.1 1-.9 0-.9-.4-1.6-1-1.6-.5 0-1 .4-1 .9zm-9.8 3.4c-1.6 4.4-1.5 6.8.2 3.7 2-3.7 2.9-7 1.9-7-.5 0-1.4 1.5-2.1 3.3zM250 205c0 .5.5 1 1 1 .6 0 1-.5 1-1 0-.6-.4-1-1-1-.5 0-1 .4-1 1zm-8.5 2c-.4 1.2-.5 2.4-.2 2.7.3.2.8-.5 1.2-1.7.4-1.2.5-2.4.2-2.7-.3-.2-.8.5-1.2 1.7zm3.5-1c0 .5.5 1 1 1 .6 0 1-.5 1-1 0-.6-.4-1-1-1-.5 0-1 .4-1 1zm0 7.5c0 2.5.5 4.5 1 4.5.6 0 1-2 1-4.5s-.4-4.5-1-4.5c-.5 0-1 2-1 4.5zm3.6-2.9c-1.1 2.8-.6 3.9.9 2 .8-1.1 1.5-2.3 1.5-2.8 0-1.4-1.8-.9-2.4.8zM50 214.4c0 5.3 2 14.6 3.2 14.6.9 0 1.1-15 .2-17.4-.3-.9-1.2-1.6-2-1.6-1 0-1.4 1.3-1.4 4.4zm216-3.4c-.8.5-1.1 1.2-.8 1.6.4.3 1.4-.1 2.3-1 1.8-1.7.9-2.1-1.5-.6zm-35.3.7c-1.1 1-.8 4.5.3 3.8.6-.3 1 .1 1 .9 0 .9.5 1.6 1 1.6 1.4 0 1.3-1.3-.3-4.4-.8-1.4-1.7-2.3-2-1.9zm19.9 2.6c-.5 1.5-.6 3.1-.2 3.4 1.1 1.1 1.8-.5 1.4-3.4l-.4-2.8-.8 2.8zm71.6.4c1.5 1.5 3.1 2.3 3.5 1.9.9-.8-3.2-4.6-5-4.6-.7 0 .1 1.2 1.5 2.7zm-253.7-.5c-.5 1.7-2.4 10.6-2.9 14-.3 1.6-.7 7.6-1 13.5l-.5 10.8 1.4-8.5c1.7-9.8 4.5-25.5 5.2-28.8.6-2.3-1.4-3.2-2.2-1zm52.9 2.3c1 5.6 1.6 7.5 2.5 7.5 1.1 0-.8-9.2-2.1-10.5-.7-.7-.8.3-.4 3zm5.6-2c0 .8.5 1.5 1 1.5.6 0 1-.7 1-1.5s-.4-1.5-1-1.5c-.5 0-1 .7-1 1.5zm131.5 2.5c-1 1.1-1.4 2-.8 2 .5 0 1.8-.9 2.8-2 1-1.1 1.4-2 .8-2-.5 0-1.8.9-2.8 2zm-20.7.7c-.6 2.2.1 4.3 1.3 4.3.5 0 .8-1.4.7-3-.2-3.3-1.3-4-2-1.3zM126.5 219c-.9 1.4.4 13 1.5 13 .7 0 .2-13-.5-13.8-.2-.2-.6.2-1 .8zm3.5.9c0 .5.7 1.4 1.5 2.1 1.6 1.4 1.8 1 .9-1.4-.6-1.7-2.4-2.2-2.4-.7zm94.6 2.3c-2.7 3.8-1.8 5.4.9 1.8 2.8-3.8 2.9-4 1.6-4-.6 0-1.7 1-2.5 2.2zm8.4-.3c0 1.2.5 2.1 1 2.1.6 0 1-.6 1-1.4 0-.8-.4-1.8-1-2.1-.5-.3-1 .3-1 1.4zm94-.9c0 .5.5 1 1 1 .6 0 1-.5 1-1 0-.6-.4-1-1-1-.5 0-1 .4-1 1zm-74 1c0 .5.5 1 1 1 .6 0 1-.5 1-1 0-.6-.4-1-1-1-.5 0-1 .4-1 1zm-7.5 1.2c-1.6.5-3.7 1.2-4.5 1.5-.8.4-1.9.7-2.5.7-1.3.1-1.9 3.6-.6 3.6.6 0 1.1-.4 1.1-.8 0-1.2 4.7-3.2 7.5-3.2 3.2 0 5.6-1 4.9-2.1-.6-1.1-2-1-5.9.3zm-73.5 1.7c0 .6.5 1.3 1 1.6.6.3 1-.1 1-.9 0-.9-.4-1.6-1-1.6-.5 0-1 .4-1 .9zm156.2.3c-.7.7-1.2 1.9-1.2 2.7 0 1.1.5.8 1.6-.7 1.8-2.5 1.5-3.9-.4-2zm-153.2.9c0 1.7 2.7 4.5 3.5 3.7.3-.3-.3-1.6-1.4-2.9-1.6-1.9-2-2-2.1-.8zm-38.6 2.6c.3 1 .8 4.4 1.2 7.7.4 3.3 1 5.3 1.4 4.6 1.4-2.2-.4-14-2.1-14-.6 0-.8.8-.5 1.7zm16.6-1.1c0 .9 3.2 3.3 4.4 3.4.5 0 .1-.9-.9-2-1.8-2-3.5-2.6-3.5-1.4zm14 1.6c0 1.6-.6 2.8-1.6 3-1.2.2-.8 1 1.6 3.3l3.2 3-.6-3.5-.7-3.5 2 2.5c1.1 1.4 2.1 3.3 2.1 4.2 0 1 .5 1.8 1.1 1.8.7 0 .9-.9.5-2.3-.3-1.2-.6-3.2-.6-4.5 0-1.3-.4-2-1-1.7-.5.3-2.1-.6-3.5-2.2l-2.4-2.8-.1 2.7zm-24.2 1.1c-.4 1.9 0 2.3 2.1 2.4 1.4.1 2-.1 1.4-.4-.7-.2-1.3-1.1-1.3-1.8 0-2.4-1.8-2.6-2.2-.2zm43.2-.6c0 1.3.5 2.3 1 2.3 1.3 0 1.3-1.1 0-3-.8-1.2-1-1.1-1 .7zm45.5.9-3 1.2h3.3c1.8-.1 3.5-.5 3.8-.9.9-1.5-1.1-1.6-4.1-.3zm-49.5 1.8c-1.3 2.6-.8 5.6 1 5.6.5 0 1-1.8 1-4s-.1-4-.3-4c-.2 0-.9 1.1-1.7 2.4zm141.5-1.4c-.3.5-.1 1 .4 1 .6 0 1.1-.5 1.1-1 0-.6-.2-1-.4-1-.3 0-.8.4-1.1 1zm-170.1 2.5c.3.8.9 2.2 1.2 3 .4 1 0 1.5-1.2 1.5-1.7.1-1.6.3.5 2 2.1 1.8 5.1 2.7 5.1 1.5 0-1.4-4.5-9.5-5.3-9.5-.5 0-.6.7-.3 1.5zm35.6 5c0 1.4.5 2.5 1 2.5.6 0 1-1.1 1-2.5s-.4-2.5-1-2.5c-.5 0-1 1.1-1 2.5zm127.5-1.4c-1.2 1.9.5 2.3 2.2.6 1.6-1.6 1.6-1.7.1-1.7-.9 0-2 .5-2.3 1.1zm-133 11c-3.8 2.9-5.5 4.9-4 4.9 1.1 0 10.5-6.4 10.5-7.2 0-1.5-2.6-.6-6.5 2.3zm121.9.3c-1 .8-1.5 1.8-1.1 2.2.4.4 1.7-.2 3-1.4 2.4-2.5 1.2-3-1.9-.8zM175.5 255c-.3.5-.2 1 .4 1 .5 0 1.3-.5 1.6-1 .3-.6.2-1-.4-1-.5 0-1.3.4-1.6 1zm119.5 2c-2 1.6-2.2 2-.7 2 .9 0 1.7-.5 1.7-1 0-.6.6-1 1.4-1 .8 0 1.8-.5 2.1-1 1.1-1.7-1.9-1.1-4.5 1zm-129.1 1.2c-5.2 3.2-9.6 8.8-6.9 8.8.6 0 1-.3 1-.8 0-.4 1.6-1.6 3.4-2.6 4.2-2.3 8.1-6.2 6.9-6.9-.5-.3-2.5.3-4.4 1.5zm118.9 8.4c-1.6.8-2.8 1.9-2.8 2.4s-.9 1.8-2.1 2.9c-1.1 1-1.7 2.1-1.2 2.3.4.2 3-1.7 5.7-4.4 5.1-4.9 5.2-5.8.4-3.2zm-220.7 4c1.6 3.2 1.8 5.2 1.3 14.5-.6 10-.5 11.1 1.6 14.4 1.2 2 2.3 3.5 2.4 3.3.2-.2 0-6.8-.4-14.8-.6-13.9-1.6-18.4-4.4-20.2-2.2-1.5-2.3-.7-.5 2.8zm89.6.9c-.4.8-.2 1.7.3 2 .6.4 1 .4 1 .1 0-.2.3-1.1.6-2 .3-.9.2-1.6-.4-1.6-.5 0-1.2.7-1.5 1.5zm.5 4.7c.5 1.5 2.8 2.3 2.8 1 0-.5-.7-1.3-1.6-1.6-1-.4-1.4-.1-1.2.6zm125.5.5c-.5.7-.1 2.5.7 4 1.6 2.9 1.9 1.6.7-2.7-.5-1.6-.9-2.1-1.4-1.3zm-127.2 4.4c-1 3.1 0 3.3 1.9.4 1.4-2.1 1.4-2.5.2-2.5-.8 0-1.8.9-2.1 2.1zm131.2 9.6c-.2.4 0 1.9.6 3.3l1 2.5.5-2.4c.4-2.4-1.2-5-2.1-3.4zM147.5 295c-1.3 4.1-1.5 6.9-.5 7.5.6.4 1-.8 1-2.9 0-1.9.5-3.8 1-4.1 1.3-.8 1.3-2.5.1-2.5-.5 0-1.2.9-1.6 2zm.6 13.2c-.1 1.6.4 2.8.9 2.8 1.2 0 1.2-.8 0-3.5-.8-1.8-.9-1.7-.9.7zm142.2 2.3c1.2 4.1 3 4.8 2.1.7-.8-3.4-1.3-4.2-2.4-4.2-.4 0-.3 1.6.3 3.5zM148 319.1c0 2.4.4 3.8 1 3.4.6-.3 1-2.2 1-4.1 0-1.9-.4-3.4-1-3.4-.5 0-1 1.8-1 4.1zm-37.3 12.2c-10.8 19.1-24.1 45.5-21.4 42.7.8-.8 4.8-8 8.9-16 4.2-8 10-18.6 13.1-23.7 7.5-12.3 8.9-15.1 7.8-15.7-.5-.3-4.3 5.4-8.4 12.7zM61 320c0 .5 2.1 1.6 4.8 2.4 2.6.8 5.6 1.8 6.6 2.2 3.8 1.5.4-1.8-3.8-3.7-4.5-2-7.6-2.4-7.6-.9zm233.5 3.1c.4 1.2.8 2.8.9 3.5.3 2.2 1.6 2.9 1.6.8 0-3.1-1.2-6.4-2.2-6.4-.5 0-.6 1-.3 2.1zM147 329.4c-1.2 3.4-1.3 4.6-.1 4.6 1.1 0 2.6-5.9 1.7-6.7-.3-.3-1 .6-1.6 2.1zm-68.5 13.7c-6.5 4.5-12.7 8.4-13.7 8.8-1.1.4-1.4 1.1-.9 2 .7 1 1.5 1 4.2-.4 1.9-1 3.6-2.1 3.9-2.5.3-.4 4.6-3.7 9.5-7.4 10.5-8 11.2-8.6 10-8.6-.6 0-6.4 3.7-13 8.1zm219.5-4.7c0 1.4.5 2.8 1 3.1.6.4 1-.7 1-2.4s-.4-3.1-1-3.1c-.5 0-1 1.1-1 2.4zm-154.5 1.2c-.4 1-1.1 2.7-1.6 3.6-.5 1-.5 1.9 0 2.3 1 .6 3.6-6.3 2.7-7.2-.3-.3-.8.3-1.1 1.3zm158 13.1c.3 2.1 1.1 4.2 1.7 4.8.7.7.9.2.4-1.5-.3-1.4-.6-3.5-.6-4.8 0-1.2-.5-2.2-1.1-2.2-.8 0-.9 1.3-.4 3.7zm-161.8-2.1c-.4.4-.7 1.4-.7 2.3 0 1.1.3 1.2 1.1.4.6-.6 1-1.6.7-2.3-.2-.6-.7-.8-1.1-.4zm7.3 6.3c0 .5.8 1.1 1.8 1.4.9.2 2.5.8 3.5 1.2 2.7 1.1 2-1.1-.8-2.3-3.1-1.4-4.5-1.5-4.5-.3zm157.1 9.3c-.1 2 .4 4 .9 4.3 1.2.7 1.2-3.2 0-6-.7-1.6-.9-1.3-.9 1.7zm-149.7-.8c-.3.8-.1 2.3.5 3.3.9 1.5 1 1.3 1.1-1.5 0-3.4-.7-4.2-1.6-1.8zm151 12.5c.3 1.8.6 3.8.6 4.3s.5.6 1 .3c1.1-.7.3-5.5-1.3-7-.6-.7-.8.1-.3 2.4zM156.2 382c0 1.4.2 1.9.5 1.2.2-.6.2-1.8 0-2.5-.3-.6-.5-.1-.5 1.3zm.4 7.5c-.3.8-.1 2.5.4 3.7.8 2 .9 1.8.9-1.5.1-3.9-.3-4.7-1.3-2.2zm152.4.6c0 .9.9 2.4 2 3.4 2.6 2.3 2.6.8 0-2.5-1.4-1.8-2-2.1-2-.9zm-154.6 10.3c-.3.8-.4 2.5-.2 3.8.2 1.9.5 1.7 1.5-1.5 1-3.5-.1-5.5-1.3-2.3zm160.6 1.3c0 1 .4 2.4.9 3.2 1.2 1.9 2.4-.3 1.6-2.9-.8-2.5-2.5-2.6-2.5-.3zm-164.3 10c-.4.3-.7 1.6-.7 2.7.1 2.1.1 2.1 1.5.2.8-1.1 1.5-2.3 1.5-2.8 0-1-1.4-1.1-2.3-.1zm165.8.2c-.3.5-.1 1.2.5 1.6.5.3 1-.1 1-.9 0-1.8-.6-2.1-1.5-.7zm1.6 5.6c0 1.1.6 2.9 1.4 3.9 2 2.6 2 0 0-3.4-1.3-2.2-1.4-2.3-1.4-.5zm-169.6 5.8c-.4 1-.5 2.1-.1 2.4 1 1 1.8-.4 1.3-2.4-.4-1.7-.4-1.7-1.2 0z"/></svg>